<svg width="128" height="22" viewBox="0 0 128 22" fill="none" xmlns="http://www.w3.org/2000/svg">
<path d="M5.376 17.336C4.528 17.336 3.768 17.192 3.096 16.904C2.424 16.6 1.888 16.168 1.488 15.608C1.104 15.032 0.912 14.336 0.912 13.52C0.912 12.704 1.104 12.024 1.488 11.48C1.888 10.92 2.432 10.504 3.12 10.232C3.824 9.944 4.624 9.8 5.52 9.8H8.784V9.128C8.784 8.568 8.608 8.112 8.256 7.76C7.904 7.392 7.344 7.208 6.576 7.208C5.824 7.208 5.264 7.384 4.896 7.736C4.528 8.072 4.288 8.512 4.176 9.056L1.392 8.12C1.584 7.512 1.888 6.96 2.304 6.464C2.736 5.952 3.304 5.544 4.008 5.24C4.728 4.92 5.6 4.76 6.624 4.76C8.192 4.76 9.432 5.152 10.344 5.936C11.256 6.72 11.712 7.856 11.712 9.344V13.784C11.712 14.264 11.936 14.504 12.384 14.504H13.344V17H11.328C10.736 17 10.248 16.856 9.864 16.568C9.48 16.28 9.288 15.896 9.288 15.416V15.392H8.832C8.768 15.584 8.624 15.84 8.4 16.16C8.176 16.464 7.824 16.736 7.344 16.976C6.864 17.216 6.208 17.336 5.376 17.336ZM5.904 14.888C6.752 14.888 7.44 14.656 7.968 14.192C8.512 13.712 8.784 13.08 8.784 12.296V12.056H5.736C5.176 12.056 4.736 12.176 4.416 12.416C4.096 12.656 3.936 12.992 3.936 13.424C3.936 13.856 4.104 14.208 4.44 14.48C4.776 14.752 5.264 14.888 5.904 14.888ZM19.7873 17.336C18.8433 17.336 17.9553 17.104 17.1233 16.64C16.3073 16.16 15.6513 15.464 15.1553 14.552C14.6593 13.64 14.4113 12.536 14.4113 11.24V10.856C14.4113 9.56 14.6593 8.456 15.1553 7.544C15.6513 6.632 16.3073 5.944 17.1233 5.48C17.9393 5 18.8273 4.76 19.7873 4.76C20.5073 4.76 21.1073 4.848 21.5873 5.024C22.0833 5.184 22.4833 5.392 22.7873 5.648C23.0913 5.904 23.3233 6.176 23.4833 6.464H23.9153V0.199999H26.9393V17H23.9633V15.56H23.5313C23.2593 16.008 22.8353 16.416 22.2593 16.784C21.6993 17.152 20.8753 17.336 19.7873 17.336ZM20.6993 14.696C21.6273 14.696 22.4033 14.4 23.0273 13.808C23.6513 13.2 23.9633 12.32 23.9633 11.168V10.928C23.9633 9.776 23.6513 8.904 23.0273 8.312C22.4193 7.704 21.6433 7.4 20.6993 7.4C19.7713 7.4 18.9953 7.704 18.3713 8.312C17.7473 8.904 17.4353 9.776 17.4353 10.928V11.168C17.4353 12.32 17.7473 13.2 18.3713 13.808C18.9953 14.4 19.7713 14.696 20.6993 14.696ZM33.6546 17.336C32.8066 17.336 32.0466 17.192 31.3746 16.904C30.7026 16.6 30.1666 16.168 29.7666 15.608C29.3826 15.032 29.1906 14.336 29.1906 13.52C29.1906 12.704 29.3826 12.024 29.7666 11.48C30.1666 10.92 30.7106 10.504 31.3986 10.232C32.1026 9.944 32.9026 9.8 33.7986 9.8H37.0626V9.128C37.0626 8.568 36.8866 8.112 36.5346 7.76C36.1826 7.392 35.6226 7.208 34.8546 7.208C34.1026 7.208 33.5426 7.384 33.1746 7.736C32.8066 8.072 32.5666 8.512 32.4546 9.056L29.6706 8.12C29.8626 7.512 30.1666 6.96 30.5826 6.464C31.0146 5.952 31.5826 5.544 32.2866 5.24C33.0066 4.92 33.8786 4.76 34.9026 4.76C36.4706 4.76 37.7106 5.152 38.6226 5.936C39.5346 6.72 39.9906 7.856 39.9906 9.344V13.784C39.9906 14.264 40.2146 14.504 40.6626 14.504H41.6226V17H39.6066C39.0146 17 38.5266 16.856 38.1426 16.568C37.7586 16.28 37.5666 15.896 37.5666 15.416V15.392H37.1106C37.0466 15.584 36.9026 15.84 36.6786 16.16C36.4546 16.464 36.1026 16.736 35.6226 16.976C35.1426 17.216 34.4866 17.336 33.6546 17.336ZM34.1826 14.888C35.0306 14.888 35.7186 14.656 36.2466 14.192C36.7906 13.712 37.0626 13.08 37.0626 12.296V12.056H34.0146C33.4546 12.056 33.0146 12.176 32.6946 12.416C32.3746 12.656 32.2146 12.992 32.2146 13.424C32.2146 13.856 32.3826 14.208 32.7186 14.48C33.0546 14.752 33.5426 14.888 34.1826 14.888ZM43.5003 17V5.096H46.4763V6.392H46.9083C47.1163 5.992 47.4603 5.648 47.9403 5.36C48.4203 5.056 49.0523 4.904 49.8363 4.904C50.6843 4.904 51.3643 5.072 51.8763 5.408C52.3883 5.728 52.7803 6.152 53.0523 6.68H53.4843C53.7563 6.168 54.1403 5.744 54.6363 5.408C55.1323 5.072 55.8363 4.904 56.7483 4.904C57.4843 4.904 58.1483 5.064 58.7403 5.384C59.3483 5.688 59.8283 6.16 60.1803 6.8C60.5483 7.424 60.7323 8.216 60.7323 9.176V17H57.7083V9.392C57.7083 8.736 57.5403 8.248 57.2043 7.928C56.8683 7.592 56.3963 7.424 55.7883 7.424C55.1003 7.424 54.5643 7.648 54.1803 8.096C53.8123 8.528 53.6283 9.152 53.6283 9.968V17H50.6043V9.392C50.6043 8.736 50.4363 8.248 50.1003 7.928C49.7643 7.592 49.2923 7.424 48.6843 7.424C47.9963 7.424 47.4603 7.648 47.0763 8.096C46.7083 8.528 46.5243 9.152 46.5243 9.968V17H43.5003ZM63.6514 17V0.199999H66.6754V9.488H67.1074L71.0434 5.096H74.9794L69.4834 10.856L75.1714 17H71.2834L67.1074 12.272H66.6754V17H63.6514ZM81.5623 17.336C80.3783 17.336 79.3303 17.088 78.4183 16.592C77.5223 16.08 76.8183 15.368 76.3063 14.456C75.8103 13.528 75.5623 12.44 75.5623 11.192V10.904C75.5623 9.656 75.8103 8.576 76.3063 7.664C76.8023 6.736 77.4983 6.024 78.3943 5.528C79.2903 5.016 80.3303 4.76 81.5143 4.76C82.6823 4.76 83.6983 5.024 84.5623 5.552C85.4263 6.064 86.0983 6.784 86.5783 7.712C87.0583 8.624 87.2983 9.688 87.2983 10.904V11.936H78.6343C78.6663 12.752 78.9703 13.416 79.5463 13.928C80.1223 14.44 80.8263 14.696 81.6583 14.696C82.5063 14.696 83.1303 14.512 83.5303 14.144C83.9303 13.776 84.2343 13.368 84.4423 12.92L86.9143 14.216C86.6903 14.632 86.3623 15.088 85.9303 15.584C85.5143 16.064 84.9543 16.48 84.2503 16.832C83.5463 17.168 82.6503 17.336 81.5623 17.336ZM78.6583 9.68H84.2263C84.1623 8.992 83.8823 8.44 83.3863 8.024C82.9063 7.608 82.2743 7.4 81.4903 7.4C80.6743 7.4 80.0263 7.608 79.5463 8.024C79.0663 8.44 78.7703 8.992 78.6583 9.68ZM90.9526 21.8V19.16H97.4326C97.8806 19.16 98.1046 18.92 98.1046 18.44V15.44H97.6726C97.5446 15.712 97.3446 15.984 97.0726 16.256C96.8006 16.528 96.4326 16.752 95.9686 16.928C95.5046 17.104 94.9126 17.192 94.1926 17.192C93.2646 17.192 92.4486 16.984 91.7446 16.568C91.0566 16.136 90.5206 15.544 90.1366 14.792C89.7526 14.04 89.5606 13.176 89.5606 12.2V5.096H92.5846V11.96C92.5846 12.856 92.8006 13.528 93.2326 13.976C93.6806 14.424 94.3126 14.648 95.1286 14.648C96.0566 14.648 96.7766 14.344 97.2886 13.736C97.8006 13.112 98.0566 12.248 98.0566 11.144V5.096H101.081V19.112C101.081 19.928 100.841 20.576 100.361 21.056C99.8806 21.552 99.2406 21.8 98.4406 21.8H90.9526ZM109.536 17.336C108.352 17.336 107.304 17.088 106.392 16.592C105.496 16.08 104.792 15.368 104.28 14.456C103.784 13.528 103.536 12.44 103.536 11.192V10.904C103.536 9.656 103.784 8.576 104.28 7.664C104.776 6.736 105.472 6.024 106.368 5.528C107.264 5.016 108.304 4.76 109.488 4.76C110.656 4.76 111.672 5.024 112.536 5.552C113.4 6.064 114.072 6.784 114.552 7.712C115.032 8.624 115.272 9.688 115.272 10.904V11.936H106.608C106.64 12.752 106.944 13.416 107.52 13.928C108.096 14.44 108.8 14.696 109.632 14.696C110.48 14.696 111.104 14.512 111.504 14.144C111.904 13.776 112.208 13.368 112.416 12.92L114.888 14.216C114.664 14.632 114.336 15.088 113.904 15.584C113.488 16.064 112.928 16.48 112.224 16.832C111.52 17.168 110.624 17.336 109.536 17.336ZM106.632 9.68H112.2C112.136 8.992 111.856 8.44 111.36 8.024C110.88 7.608 110.248 7.4 109.464 7.4C108.648 7.4 108 7.608 107.52 8.024C107.04 8.44 106.744 8.992 106.632 9.68ZM122.575 17.336C121.023 17.336 119.751 17 118.759 16.328C117.767 15.656 117.167 14.696 116.959 13.448L119.743 12.728C119.855 13.288 120.039 13.728 120.295 14.048C120.567 14.368 120.895 14.6 121.279 14.744C121.679 14.872 122.111 14.936 122.575 14.936C123.279 14.936 123.799 14.816 124.135 14.576C124.471 14.32 124.639 14.008 124.639 13.64C124.639 13.272 124.479 12.992 124.159 12.8C123.839 12.592 123.327 12.424 122.623 12.296L121.951 12.176C121.119 12.016 120.359 11.8 119.671 11.528C118.983 11.24 118.431 10.848 118.015 10.352C117.599 9.856 117.391 9.216 117.391 8.432C117.391 7.248 117.823 6.344 118.687 5.72C119.551 5.08 120.687 4.76 122.095 4.76C123.423 4.76 124.527 5.056 125.407 5.648C126.287 6.24 126.863 7.016 127.135 7.976L124.327 8.84C124.199 8.232 123.935 7.8 123.535 7.544C123.151 7.288 122.671 7.16 122.095 7.16C121.519 7.16 121.079 7.264 120.775 7.472C120.471 7.664 120.319 7.936 120.319 8.288C120.319 8.672 120.479 8.96 120.799 9.152C121.119 9.328 121.551 9.464 122.095 9.56L122.767 9.68C123.663 9.84 124.471 10.056 125.191 10.328C125.927 10.584 126.503 10.96 126.919 11.456C127.351 11.936 127.567 12.592 127.567 13.424C127.567 14.672 127.111 15.64 126.199 16.328C125.303 17 124.095 17.336 122.575 17.336Z" fill="white"/>
</svg>
