<svg xmlns="http://www.w3.org/2000/svg" width="530" height="129" fill="none"><g stroke="#fff" opacity=".25"><path d="M529.5 40c0 2.521-1.694 5.087-5.181 7.659-3.473 2.562-8.627 5.054-15.312 7.44-13.365 4.77-32.732 9.073-56.698 12.69C404.385 75.025 338.161 79.5 265 79.5S125.615 75.024 77.691 67.79c-23.966-3.618-43.333-7.922-56.698-12.691-6.685-2.386-11.84-4.878-15.312-7.44C2.194 45.087.5 42.521.5 40s1.694-5.087 5.18-7.659c3.474-2.562 8.627-5.054 15.313-7.44 13.365-4.77 32.732-9.073 56.698-12.69C125.615 4.975 191.84.5 265 .5s139.385 4.476 187.309 11.71c23.966 3.618 43.333 7.921 56.698 12.691 6.685 2.386 11.839 4.878 15.312 7.44 3.487 2.572 5.181 5.138 5.181 7.659Z"/><path d="M529.5 52c0 2.521-1.694 5.087-5.181 7.659-3.473 2.562-8.627 5.054-15.312 7.44-13.365 4.77-32.732 9.073-56.698 12.69C404.385 87.025 338.161 91.5 265 91.5S125.615 87.024 77.691 79.79c-23.966-3.618-43.333-7.922-56.698-12.691-6.685-2.386-11.84-4.878-15.312-7.44C2.194 57.087.5 54.521.5 52s1.694-5.087 5.18-7.659c3.474-2.562 8.627-5.054 15.313-7.44 13.365-4.77 32.732-9.073 56.698-12.69C125.615 16.975 191.84 12.5 265 12.5s139.385 4.476 187.309 11.71c23.966 3.618 43.333 7.922 56.698 12.691 6.685 2.386 11.839 4.878 15.312 7.44 3.487 2.572 5.181 5.138 5.181 7.659Z"/><path d="M529.5 65c0 2.521-1.694 5.088-5.181 7.659-3.473 2.562-8.627 5.054-15.312 7.44-13.365 4.77-32.732 9.073-56.698 12.69C404.385 100.025 338.161 104.5 265 104.5s-139.385-4.476-187.309-11.71c-23.966-3.618-43.333-7.922-56.698-12.691-6.685-2.386-11.84-4.878-15.312-7.44C2.194 70.087.5 67.521.5 65s1.694-5.087 5.18-7.659c3.474-2.562 8.627-5.054 15.313-7.44 13.365-4.77 32.732-9.073 56.698-12.69C125.615 29.975 191.84 25.5 265 25.5s139.385 4.476 187.309 11.71c23.966 3.618 43.333 7.922 56.698 12.691 6.685 2.386 11.839 4.878 15.312 7.44 3.487 2.572 5.181 5.138 5.181 7.659Z"/><path d="M529.5 77c0 2.521-1.694 5.088-5.181 7.659-3.473 2.562-8.627 5.054-15.312 7.44-13.365 4.77-32.732 9.073-56.698 12.691C404.385 112.024 338.161 116.5 265 116.5s-139.385-4.476-187.309-11.71c-23.966-3.618-43.333-7.922-56.698-12.691-6.685-2.386-11.84-4.878-15.312-7.44C2.194 82.087.5 79.521.5 77s1.694-5.088 5.18-7.659c3.474-2.562 8.627-5.054 15.313-7.44 13.365-4.77 32.732-9.073 56.698-12.69C125.615 41.975 191.84 37.5 265 37.5s139.385 4.476 187.309 11.71c23.966 3.618 43.333 7.922 56.698 12.691 6.685 2.386 11.839 4.878 15.312 7.44 3.487 2.572 5.181 5.138 5.181 7.659Z"/><path d="M529.5 89c0 2.521-1.694 5.088-5.181 7.659-3.473 2.562-8.627 5.054-15.312 7.44-13.365 4.769-32.732 9.073-56.698 12.691C404.385 124.024 338.161 128.5 265 128.5s-139.385-4.476-187.309-11.71c-23.966-3.618-43.333-7.922-56.698-12.691-6.685-2.386-11.84-4.878-15.312-7.44C2.194 94.087.5 91.521.5 89s1.694-5.088 5.18-7.659c3.474-2.562 8.627-5.054 15.313-7.44 13.365-4.77 32.732-9.073 56.698-12.69C125.615 53.975 191.84 49.5 265 49.5s139.385 4.476 187.309 11.71c23.966 3.618 43.333 7.922 56.698 12.691 6.685 2.386 11.839 4.878 15.312 7.44 3.487 2.572 5.181 5.138 5.181 7.659Z"/></g></svg>